HIERARCHY
ROOT Hips
{
 OFFSET 0.000000 0.000000 0.000000
 CHANNELS 6 Xposition Yposition Zposition Yrotation Xrotation Zrotation
 JOINT Chest
 {
  OFFSET 0.000000 9.812683 -0.003552
  CHANNELS 3 Yrotation Xrotation Zrotation
  JOINT Chest2
  {
   OFFSET 0.000000 9.777810 0.007248
   CHANNELS 3 Yrotation Xrotation Zrotation
   JOINT Chest3
   {
    OFFSET 0.000000 9.736392 0.000000
    CHANNELS 3 Yrotation Xrotation Zrotation
    JOINT Chest4
    {
     OFFSET 0.000000 9.726454 0.000000
     CHANNELS 3 Yrotation Xrotation Zrotation
     JOINT Neck
     {
      OFFSET 0.000000 14.679095 0.000000
      CHANNELS 3 Yrotation Xrotation Zrotation
      JOINT Head
      {
       OFFSET 0.000000 9.104124 0.015333
       CHANNELS 3 Yrotation Xrotation Zrotation
       End Site
       {
        OFFSET 0.000000 17.313862 0.008094
       }
      }
     }
     JOINT RightCollar
     {
      OFFSET -2.991841 9.728033 0.000000
      CHANNELS 3 Yrotation Xrotation Zrotation
      JOINT RightShoulder
      {
       OFFSET -14.105608 0.000000 0.000000
       CHANNELS 3 Yrotation Xrotation Zrotation
       JOINT RightElbow
       {
        OFFSET -30.920614 0.000000 0.000000
        CHANNELS 3 Yrotation Xrotation Zrotation
        JOINT RightWrist
        {
         OFFSET -25.011638 0.000000 0.000000
         CHANNELS 3 Yrotation Xrotation Zrotation
         End Site
         {
          OFFSET -18.498852 0.000000 0.000000
         }
        }
       }
      }
     }
     JOINT LeftCollar
     {
      OFFSET 2.991841 9.728033 0.000000
      CHANNELS 3 Yrotation Xrotation Zrotation
      JOINT LeftShoulder
      {
       OFFSET 14.105608 0.000000 0.000000
       CHANNELS 3 Yrotation Xrotation Zrotation
       JOINT LeftElbow
       {
        OFFSET 30.920614 0.000000 0.000000
        CHANNELS 3 Yrotation Xrotation Zrotation
        JOINT LeftWrist
        {
         OFFSET 25.011638 0.000000 0.000000
         CHANNELS 3 Yrotation Xrotation Zrotation
         End Site
         {
          OFFSET 18.498852 0.000000 0.000000
         }
        }
       }
      }
     }
    }
   }
  }
 }
 JOINT RightHip
 {
  OFFSET -8.005612 0.017580 0.001776
  CHANNELS 3 Yrotation Xrotation Zrotation
  JOINT RightKnee
  {
   OFFSET 0.000000 -41.413990 -0.001697
   CHANNELS 3 Yrotation Xrotation Zrotation
   JOINT RightAnkle
   {
    OFFSET 0.000000 -40.303361 -0.002870
    CHANNELS 3 Yrotation Xrotation Zrotation
    JOINT RightToe
    {
     OFFSET 0.000000 -7.855341 17.873357
     CHANNELS 3 Yrotation Xrotation Zrotation
     End Site
     {
      OFFSET 0.000000 -1.536332 6.874071
     }
    }
   }
  }
 }
 JOINT LeftHip
 {
  OFFSET 8.005612 0.017580 0.001776
  CHANNELS 3 Yrotation Xrotation Zrotation
  JOINT LeftKnee
  {
   OFFSET 0.000000 -41.413990 -0.001697
   CHANNELS 3 Yrotation Xrotation Zrotation
   JOINT LeftAnkle
   {
    OFFSET 0.000000 -40.303361 -0.002870
    CHANNELS 3 Yrotation Xrotation Zrotation
    JOINT LeftToe
    {
     OFFSET 0.000000 -7.855341 17.873357
     CHANNELS 3 Yrotation Xrotation Zrotation
     End Site
     {
      OFFSET 0.000000 -1.536332 6.874071
     }
    }
   }
  }
 }
}
MOTION
Frames: 9
Frame Time: 0.008333
-29.275711 50.634768 -13.068497 171.283933 -16.115108 20.231660 -13.622153 21.207522 5.867642 -2.430340 3.470296 1.407135 -3.824502 5.537559 2.168163 -11.257366 17.303214 5.544481 11.711126 12.890788 -11.880553 17.022453 -10.976153 -17.182644 6.796099 -4.007445 -9.821430 10.912271 -6.102248 50.941991 5.924332 -8.342546 -5.673166 34.963712 -1.127497 -30.381743 3.240970 0.007841 -3.828900 -32.591520 -20.800698 -54.077200 -37.987485 -11.017878 -2.480481 9.066146 -4.777885 -5.105249 26.804958 -50.913441 -31.424728 -145.308707 53.365262 -154.172068 -33.333344 -36.197287 31.245511 -0.168902 1.908809 -0.095261 20.686890 -42.846662 -0.192951 -173.689601 61.666310 175.782755 -21.811207 -59.983166 9.697846 -0.087197 -0.666655 -0.890354
-29.335092 49.829218 -13.039121 171.070772 -16.333484 20.305595 -13.620575 21.389351 5.786771 -2.447225 3.514216 1.414607 -3.848301 5.603905 2.177442 -11.264408 17.406751 5.531080 11.635385 12.865409 -11.879583 16.925943 -11.014999 -17.156712 6.800040 -3.996793 -9.887573 10.765674 -6.240637 50.637162 5.089467 -8.246326 -5.791337 35.159212 -1.123893 -30.928499 3.248296 -0.088393 -3.839722 -32.341831 -20.808370 -54.033655 -38.385887 -11.169474 -2.197125 9.091350 -4.802915 -4.990630 27.845926 -51.331820 -32.287614 -146.387025 52.281780 -155.269624 -33.389818 -36.396526 31.718334 -0.198584 1.812412 -0.216022 20.837975 -43.495844 0.282316 -173.949453 60.291052 175.697722 -22.371293 -60.134104 10.107714 -0.124801 -0.605586 -0.848316
-29.384721 49.020203 -13.009203 170.960165 -16.588192 20.357329 -13.699942 21.556853 5.714418 -2.461606 3.554776 1.417618 -3.868552 5.665182 2.179916 -11.270223 17.504552 5.501629 11.545588 12.841838 -11.864190 16.806078 -11.055059 -17.106947 6.770575 -3.987220 -9.944899 10.595381 -6.411327 50.390556 4.290844 -8.073336 -5.932050 35.395439 -1.201778 -31.417086 3.235596 -0.175320 -3.835903 -32.099980 -20.812480 -53.981582 -38.775843 -11.333438 -1.940676 9.162151 -4.840526 -4.913736 29.036024 -51.694272 -33.320787 -147.553020 51.147639 -156.353667 -33.374594 -36.459789 32.184565 -0.218359 1.573099 -0.328782 20.771679 -44.154388 0.862269 -174.174999 58.961950 175.566351 -22.916735 -60.240763 10.476737 -0.167128 -0.527798 -0.821266
-29.415380 48.204411 -12.976439 170.888476 -16.854565 20.378082 -13.775798 21.707925 5.683306 -2.473586 3.589894 1.415585 -3.885557 5.718237 2.174749 -11.278393 17.591040 5.454960 11.442763 12.828752 -11.836964 16.664473 -11.085721 -17.036395 6.696873 -3.976981 -9.998658 10.409937 -6.573732 50.227077 3.569209 -7.895230 -6.089829 35.644385 -1.289795 -31.801721 3.198701 -0.232604 -3.821710 -31.874227 -20.821133 -53.913321 -39.147225 -11.501338 -1.710240 9.269839 -4.881769 -4.853848 30.374255 -52.017954 -34.437178 -148.892604 49.993727 -157.473066 -33.442865 -36.447889 32.644789 -0.190005 1.265458 -0.415348 20.499969 -44.828392 1.623904 -174.252729 57.655008 175.495249 -23.469494 -60.302558 10.859389 -0.186293 -0.460429 -0.812728
-29.423129 47.381717 -12.939303 170.832742 -17.124816 20.380546 -13.828474 21.840210 5.686524 -2.484028 3.618120 1.408360 -3.900745 5.760857 2.161741 -11.294286 17.661441 5.390733 11.331527 12.832053 -11.804808 16.509142 -11.098709 -16.955216 6.582754 -3.964590 -10.052318 10.238528 -6.667885 50.149120 2.967208 -7.797292 -6.243767 35.872259 -1.326571 -32.083676 3.144525 -0.234802 -3.799702 -31.673078 -20.849439 -53.823521 -39.497874 -11.659598 -1.486829 9.396389 -4.917893 -4.781671 31.780927 -52.306492 -35.561253 -150.360130 48.852100 -158.611189 -33.664020 -36.437158 33.116379 -0.116714 0.968941 -0.477666 20.061747 -45.508581 2.551321 -174.124264 56.377370 175.552375 -24.005440 -60.316998 11.278089 -0.177243 -0.408173 -0.823853
-29.409059 46.553848 -12.894464 170.785615 -17.381581 20.398913 -13.859430 21.933634 5.689305 -2.494366 3.640474 1.396925 -3.916258 5.794551 2.142335 -11.321367 17.716725 5.311495 11.215930 12.851999 -11.775988 16.348293 -11.092284 -16.875591 6.436158 -3.953868 -10.102368 10.111388 -6.657154 50.137591 2.491275 -7.797105 -6.373376 36.049444 -1.309068 -32.302700 3.081589 -0.178090 -3.772678 -31.489388 -20.905525 -53.718672 -39.833708 -11.768341 -1.260578 9.514324 -4.944466 -4.662984 33.193605 -52.565579 -36.669019 -151.820493 47.743439 -159.701094 -34.025678 -36.503246 33.619555 -0.022545 0.759422 -0.524962 19.583548 -46.193686 3.515376 -173.813654 55.143678 175.769960 -24.459064 -60.288793 11.698529 -0.149645 -0.368600 -0.842861
-29.372776 45.724220 -12.843671 170.738753 -17.638753 20.459048 -13.879459 22.004391 5.660080 -2.506206 3.660706 1.382856 -3.934334 5.824963 2.118800 -11.359783 17.764929 5.220498 11.098390 12.879475 -11.757164 16.188147 -11.076013 -16.807755 6.267533 -3.945585 -10.150652 10.019410 -6.571469 50.180486 2.104805 -7.806673 -6.474246 36.167097 -1.268072 -32.513494 3.016223 -0.095785 -3.747974 -31.300911 -20.980652 -53.607603 -40.159360 -11.784859 -1.038479 9.593385 -4.953323 -4.475297 34.568665 -52.775585 -37.740405 -153.182297 46.667693 -160.693525 -34.513309 -36.696869 34.176756 0.079338 0.687580 -0.561611 19.163624 -46.867200 4.422393 -173.380155 53.957452 176.145139 -24.802300 -60.246039 12.089373 -0.130033 -0.315035 -0.859184
-29.308243 44.894459 -12.789406 170.709247 -17.923293 20.540427 -13.917284 22.080891 5.609079 -2.521363 3.682041 1.367332 -3.957579 5.856918 2.092785 -11.411587 17.812382 5.119433 10.985132 12.906322 -11.749644 16.037804 -11.058562 -16.756217 6.097597 -3.921826 -10.205189 9.935256 -6.477431 50.270023 1.736380 -7.724848 -6.545978 36.228306 -1.225699 -32.747661 2.958743 -0.027390 -3.740501 -31.090551 -21.051717 -53.499035 -40.473914 -11.695147 -0.819401 9.617691 -4.932978 -4.226361 35.879367 -52.928264 -38.763598 -154.435838 45.600832 -161.579119 -35.030026 -36.951514 34.771855 0.167298 0.664799 -0.601894 18.759019 -47.521431 5.298322 -172.878642 52.807985 176.631999 -25.080857 -60.165929 12.444884 -0.125854 -0.271525 -0.857467
-29.208902 44.064079 -12.730634 170.704503 -18.232747 20.614197 -13.975011 22.158317 5.565348 -2.540579 3.705685 1.350618 -3.987065 5.892213 2.064630 -11.477833 17.861302 5.008227 10.881558 12.933954 -11.747952 15.902129 -11.038351 -16.715637 5.941893 -3.863496 -10.260749 9.873445 -6.398719 50.375135 1.320635 -7.534563 -6.584330 36.246418 -1.196591 -32.978882 2.918447 0.012205 -3.754639 -30.861107 -21.096427 -53.406423 -40.777997 -11.511032 -0.590326 9.590520 -4.879260 -3.951059 37.134659 -53.050229 -39.732671 -155.593555 44.518560 -162.370926 -35.518741 -37.225551 35.405529 0.221161 0.640726 -0.662775 18.309182 -48.225591 6.221336 -172.366056 51.645240 177.182927 -25.326405 -59.971378 12.712924 -0.112745 -0.302321 -0.815108
